<?xml version="1.0" standalone="no"?>
<!DOCTYPE svg PUBLIC "-//W3C//DTD SVG 20010904//EN"
 "http://www.w3.org/TR/2001/REC-SVG-20010904/DTD/svg10.dtd">
<svg version="1.0" xmlns="http://www.w3.org/2000/svg"
 width="512.000000pt" height="512.000000pt" viewBox="0 0 512.000000 512.000000"
 preserveAspectRatio="xMidYMid meet">
<metadata>
Created by potrace 1.14, written by Peter Selinger 2001-2017
</metadata>
<g transform="translate(0.000000,512.000000) scale(0.100000,-0.100000)"
fill="#000000" stroke="none">
<path d="M1502 4457 l-1042 -522 0 -1263 c0 -789 4 -1261 10 -1257 11 7 150
-62 168 -84 7 -9 11 -10 7 -4 -4 9 -1 11 10 7 10 -4 12 -10 6 -18 -7 -8 -4
-12 9 -12 10 0 16 4 14 8 -3 4 2 5 10 2 19 -7 21 -25 5 -41 -8 -8 -8 -13 0
-18 6 -3 10 -3 9 2 -2 4 0 8 3 8 3 0 14 7 24 15 17 14 18 13 12 -10 -6 -24 -5
-24 8 -6 8 11 15 14 15 7 0 -7 4 -9 10 -6 6 3 10 1 10 -5 0 -6 5 -8 12 -4 8 5
9 1 4 -12 -5 -14 -4 -16 4 -8 14 14 60 -4 60 -22 0 -7 7 -15 16 -18 26 -10 29
-7 8 9 -18 14 -17 14 9 4 26 -12 37 -29 17 -29 -5 0 -7 -7 -3 -17 5 -14 7 -13
14 5 5 14 14 20 24 16 18 -7 19 -16 4 -31 -8 -8 -7 -13 2 -18 7 -5 10 -4 6 2
-4 6 1 17 10 24 14 12 16 12 11 -6 -4 -15 0 -21 13 -21 14 0 15 3 7 14 -7 7 9
3 35 -9 26 -13 47 -27 47 -32 0 -5 -8 -3 -17 4 -16 13 -17 12 -4 -4 12 -16 9
-22 -12 -18 -5 1 -5 -3 -2 -9 5 -8 13 -6 24 4 10 9 21 13 26 9 4 -5 5 -2 1 4
-5 9 -2 11 8 7 19 -7 21 -24 4 -24 -6 0 -8 -3 -5 -6 4 -4 14 -1 23 7 16 12 17
12 12 -6 -4 -15 0 -21 13 -21 14 0 15 3 6 14 -6 8 19 -1 56 -20 48 -24 65 -37
61 -48 -4 -11 -2 -12 6 -4 14 14 59 -4 61 -23 3 -28 4 -32 13 -40 5 -4 7 -4 4
2 -3 6 0 16 8 23 13 12 18 8 15 -11 -1 -5 4 -5 10 -1 13 7 129 -45 129 -58 0
-5 5 -6 10 -3 5 3 10 1 10 -6 0 -7 3 -10 6 -6 7 7 126 -50 136 -66 3 -6 4 -17
1 -26 -4 -14 -3 -14 5 -1 6 8 8 18 5 23 -8 12 61 -24 69 -36 4 -6 4 -15 1 -20
-3 -5 4 -4 16 2 23 13 28 3 9 -19 -8 -9 -5 -8 7 1 20 17 50 15 40 -2 -4 -5 1
-6 9 -3 9 3 16 1 16 -5 0 -6 9 -11 20 -11 11 0 20 -7 20 -16 0 -8 -4 -13 -8
-10 -5 3 -9 -1 -9 -9 0 -11 4 -12 14 -4 7 6 13 8 13 4 0 -4 7 -2 15 5 12 10
15 10 15 -3 0 -8 7 -18 16 -21 14 -6 15 -4 4 10 -10 11 -1 9 33 -7 43 -21 64
-43 35 -35 -7 1 -10 1 -6 -1 4 -2 4 -12 1 -21 -4 -10 2 -7 16 8 20 22 22 23
18 5 -3 -15 1 -21 14 -21 14 0 15 3 7 13 -8 10 -7 12 6 7 9 -3 16 -10 16 -14
0 -4 13 -10 30 -13 20 -4 30 -13 30 -24 0 -14 2 -15 9 -4 5 8 11 9 15 3 4 -6
-2 -15 -11 -21 -10 -6 -13 -11 -6 -11 6 0 15 4 18 10 3 5 13 10 21 10 8 0 12
-5 9 -11 -4 -6 -1 -9 7 -7 21 5 98 -33 98 -48 0 -7 4 -16 10 -19 5 -3 7 0 4 9
-4 11 5 10 40 -7 25 -11 42 -25 39 -30 -4 -6 0 -8 10 -4 11 4 17 1 17 -8 0 -8
5 -15 11 -15 5 0 7 5 3 11 -3 6 8 3 26 -6 26 -13 30 -19 19 -27 -10 -7 -8 -8
8 -3 13 3 30 2 40 -3 11 -7 21 -6 31 4 8 9 22 12 34 8 15 -4 18 -3 13 7 -6 9
-3 11 9 6 9 -4 14 -3 11 2 -3 5 -1 12 5 16 5 3 10 1 10 -5 0 -6 5 -8 10 -5 6
4 7 12 3 18 -4 7 6 3 22 -7 l30 -19 -20 23 c-11 13 -14 20 -6 15 20 -11 71
-14 71 -3 0 4 -7 8 -15 8 -18 0 -20 16 -3 26 7 5 9 2 4 -7 -4 -8 0 -5 8 5 9
11 16 16 16 12 0 -4 13 2 29 13 15 11 31 18 35 14 3 -3 6 0 6 7 0 7 3 11 6 7
3 -3 20 3 36 13 17 10 38 16 46 12 11 -4 13 -2 7 8 -6 10 -4 12 9 7 9 -4 14
-3 11 2 -3 5 -1 12 5 16 5 3 10 1 10 -5 0 -6 5 -8 10 -5 6 4 7 11 4 17 -4 7
-2 8 4 4 7 -4 12 -2 12 5 0 7 3 10 6 6 3 -3 20 3 36 13 17 10 38 16 46 12 9
-3 13 -1 9 4 -3 6 3 15 13 22 16 10 21 9 30 -6 10 -15 11 -15 6 0 -2 9 2 22
11 30 14 11 15 10 10 -12 -4 -14 -4 -19 -1 -13 4 10 11 10 27 2 19 -8 20 -8 7
3 -17 15 -26 43 -10 33 5 -3 10 -1 10 5 0 6 4 9 10 5 5 -3 8 -11 6 -18 -1 -7
-1 -9 1 -4 3 4 9 5 13 2 5 -3 12 0 16 6 4 7 3 9 -3 6 -6 -4 -14 0 -17 9 -3 8
-2 13 3 9 5 -3 12 1 14 7 4 10 6 10 6 1 1 -7 13 -1 27 12 21 20 30 22 41 14
11 -10 12 -8 7 7 -4 10 -4 16 1 12 4 -4 21 2 36 13 16 11 29 17 29 14 0 -4 7
1 16 9 8 9 20 14 25 11 5 -4 9 -2 9 4 0 6 7 7 17 4 12 -5 14 -3 8 8 -4 8 -5
11 0 7 4 -4 21 2 36 13 16 11 29 16 29 10 0 -5 -5 -13 -10 -16 -6 -3 -10 -12
-9 -18 0 -9 2 -8 6 1 2 6 10 9 15 6 6 -4 8 -2 4 4 -3 6 -2 13 4 17 6 4 7 12 4
18 -4 7 -3 9 1 4 5 -4 17 1 28 10 15 13 19 14 13 3 -6 -12 -5 -12 6 1 7 9 19
14 27 11 8 -3 11 0 7 6 -4 7 9 5 30 -4 19 -8 33 -10 29 -5 -3 6 -13 11 -21 11
-18 0 -14 22 6 28 7 3 10 1 7 -4 -4 -8 36 -10 53 -4 3 1 8 2 12 1 5 0 7 5 5
12 -1 6 4 11 11 9 8 -1 11 2 7 8 -3 6 -11 8 -16 5 -5 -4 -9 -4 -9 -1 0 9 60
37 60 29 0 -5 5 0 11 10 6 9 14 15 20 12 5 -4 9 -1 9 6 0 8 5 8 18 -2 9 -7 14
-10 10 -5 -4 4 -1 14 5 21 10 10 15 9 25 -9 l13 -21 -6 22 c-4 16 0 25 17 35
13 7 26 11 31 10 4 -1 7 3 7 9 0 7 11 4 28 -6 l27 -18 -20 24 -20 23 28 -17
c30 -19 37 -12 10 9 -17 13 -17 13 2 15 11 1 26 1 33 0 7 -1 11 4 10 11 -2 8
4 12 16 10 10 -2 15 1 11 7 -3 7 0 8 9 5 13 -5 14 -8 1 -28 -13 -19 -13 -23
-1 -23 8 0 12 6 8 15 -3 9 -1 13 5 9 12 -8 12 11 0 31 -5 6 -4 12 2 12 5 0 14
-8 20 -17 5 -10 13 -14 17 -10 5 5 2 12 -6 17 -8 5 -11 12 -7 16 4 4 13 2 19
-4 7 -7 16 -12 22 -12 5 0 2 6 -9 13 -12 10 -14 16 -7 21 7 4 12 2 12 -4 0 -6
5 -8 10 -5 6 4 7 11 4 17 -4 6 0 6 13 -1 21 -11 33 -6 33 13 0 6 -5 4 -10 -4
-5 -8 -10 -10 -10 -4 0 18 13 24 27 12 11 -9 12 -7 7 7 -5 13 -4 16 5 11 7 -5
18 -1 25 10 10 13 15 14 21 4 6 -9 4 -11 -5 -5 -8 5 -11 4 -6 -3 3 -6 -8 -22
-26 -37 -18 -15 -24 -22 -13 -17 11 6 29 19 39 31 10 11 23 18 28 15 6 -4 5 4
-2 16 -8 15 -8 20 -1 16 6 -4 11 -2 11 4 0 6 4 9 9 6 5 -3 20 4 35 15 14 11
26 17 26 12 0 -4 4 -3 8 3 17 25 45 32 71 17 22 -13 23 -13 9 0 -23 18 -23 28
-1 20 9 -4 14 -2 10 4 -3 5 30 27 73 48 l80 39 0 1256 0 1255 -1045 523 c-575
287 -1051 522 -1058 521 -6 0 -481 -235 -1055 -522z m2246 -3514 c-8 -10 -14
-11 -16 -4 -2 6 -9 8 -14 5 -7 -4 -8 -2 -4 5 4 6 12 9 17 6 5 -4 9 -1 9 5 0 6
5 8 10 5 8 -5 7 -12 -2 -22z m-1003 -493 c3 -5 2 -10 -4 -10 -5 0 -13 5 -16
10 -3 6 -2 10 4 10 5 0 13 -4 16 -10z"/>
<path d="M4575 1371 c-3 -5 -2 -12 3 -15 5 -3 9 1 9 9 0 17 -3 19 -12 6z"/>
<path d="M576 1347 c3 -10 9 -15 12 -12 3 3 0 11 -7 18 -10 9 -11 8 -5 -6z"/>
<path d="M4451 1311 c-8 -5 -9 -11 -3 -15 5 -3 12 1 16 9 6 17 6 18 -13 6z"/>
<path d="M666 1278 c3 -5 10 -6 15 -3 13 9 11 12 -6 12 -8 0 -12 -4 -9 -9z"/>
<path d="M4393 1276 c-3 -5 -1 -6 5 -2 5 3 13 0 15 -6 4 -10 6 -10 6 0 1 7 6
10 11 7 6 -3 10 -2 10 4 0 12 -39 10 -47 -3z"/>
<path d="M4455 1260 c3 -5 8 -10 11 -10 2 0 4 5 4 10 0 6 -5 10 -11 10 -5 0
-7 -4 -4 -10z"/>
<path d="M4366 1248 c3 -5 10 -6 15 -3 13 9 11 12 -6 12 -8 0 -12 -4 -9 -9z"/>
<path d="M756 1242 c-2 -4 4 -8 14 -8 10 0 16 4 14 8 -3 4 -9 8 -14 8 -5 0
-11 -4 -14 -8z"/>
<path d="M4330 1199 c0 -5 5 -7 10 -4 6 3 10 8 10 11 0 2 -4 4 -10 4 -5 0 -10
-5 -10 -11z"/>
<path d="M855 1180 c3 -5 8 -10 11 -10 2 0 4 5 4 10 0 6 -5 10 -11 10 -5 0 -7
-4 -4 -10z"/>
<path d="M4210 1158 c0 -6 3 -8 7 -5 3 4 13 1 22 -6 14 -11 14 -10 2 6 -15 20
-31 22 -31 5z"/>
<path d="M1033 1115 c0 -8 4 -12 9 -9 4 3 8 9 8 15 0 5 -4 9 -8 9 -5 0 -9 -7
-9 -15z"/>
<path d="M3954 1058 c-4 -7 -4 -10 1 -6 4 4 14 0 22 -10 13 -15 13 -15 3 6
-12 25 -16 27 -26 10z"/>
<path d="M3990 1065 c0 -5 5 -17 10 -25 5 -8 10 -10 10 -5 0 6 -5 17 -10 25
-5 8 -10 11 -10 5z"/>
<path d="M3930 1046 c0 -3 9 -10 20 -16 11 -6 20 -8 20 -6 0 3 -9 10 -20 16
-11 6 -20 8 -20 6z"/>
<path d="M4027 1039 c7 -7 15 -10 18 -7 3 3 -2 9 -12 12 -14 6 -15 5 -6 -5z"/>
<path d="M1215 1029 c-4 -6 -5 -12 -2 -15 2 -3 7 2 10 11 7 17 1 20 -8 4z"/>
<path d="M1243 1004 c9 -11 15 -24 12 -27 -3 -4 -2 -5 2 -2 4 3 8 16 9 28 2
12 0 16 -3 9 -4 -10 -8 -10 -21 0 -14 10 -14 9 1 -8z"/>
<path d="M3827 989 c-10 -11 -22 -17 -27 -14 -5 3 -7 -1 -4 -9 5 -13 9 -12 26
4 12 11 25 17 29 14 5 -3 6 2 3 10 -3 9 -7 16 -8 15 0 0 -9 -9 -19 -20z"/>
<path d="M3850 959 c0 -5 5 -7 10 -4 6 3 10 8 10 11 0 2 -4 4 -10 4 -5 0 -10
-5 -10 -11z"/>
<path d="M1410 934 c0 -7 52 -25 57 -20 2 2 -10 8 -26 14 -17 6 -31 9 -31 6z"/>
<path d="M1415 900 c3 -5 8 -10 11 -10 2 0 4 5 4 10 0 6 -5 10 -11 10 -5 0 -7
-4 -4 -10z"/>
<path d="M1475 901 c-6 -10 11 -24 32 -27 6 -1 9 5 6 13 -5 12 -7 12 -14 1 -8
-12 -13 -4 -10 15 1 10 -7 9 -14 -2z"/>
<path d="M3730 899 c0 -5 5 -7 10 -4 6 3 10 8 10 11 0 2 -4 4 -10 4 -5 0 -10
-5 -10 -11z"/>
<path d="M3650 880 c0 -4 7 -7 15 -6 23 3 26 12 5 13 -11 1 -20 -2 -20 -7z"/>
<path d="M3590 872 c0 -6 9 -12 20 -15 11 -3 20 -3 20 -1 0 2 -9 8 -20 14 -11
6 -20 7 -20 2z"/>
<path d="M1530 860 c0 -5 5 -10 11 -10 5 0 7 5 4 10 -3 6 -8 10 -11 10 -2 0
-4 -4 -4 -10z"/>
<path d="M1594 839 c-3 -6 -3 -13 0 -16 3 -4 6 -1 6 5 0 6 7 9 15 6 8 -4 15
-4 15 -1 0 11 -30 16 -36 6z"/>
<path d="M1635 821 c-6 -10 11 -24 32 -27 6 -1 9 5 6 13 -5 12 -7 12 -14 1 -8
-12 -13 -4 -10 15 1 10 -7 9 -14 -2z"/>
<path d="M3510 825 c0 -5 5 -17 10 -25 5 -8 10 -10 10 -5 0 6 -5 17 -10 25 -5
8 -10 11 -10 5z"/>
<path d="M3560 820 c-9 -6 -10 -10 -3 -10 6 0 15 5 18 10 8 12 4 12 -15 0z"/>
<path d="M3447 797 c2 -4 9 -4 15 -1 7 5 9 2 6 -8 -4 -8 -1 -15 7 -15 8 0 11
7 7 15 -3 10 -1 13 6 8 7 -4 12 -3 12 2 0 5 -13 9 -29 8 -16 0 -27 -4 -24 -9z"/>
<path d="M1719 788 c-5 -18 -6 -38 -1 -34 7 8 12 36 6 36 -2 0 -4 -1 -5 -2z"/>
<path d="M3394 778 c-4 -7 -4 -10 1 -6 4 4 14 0 22 -10 13 -15 13 -15 3 6 -12
25 -16 27 -26 10z"/>
<path d="M3430 780 c0 -5 5 -10 11 -10 5 0 7 5 4 10 -3 6 -8 10 -11 10 -2 0
-4 -4 -4 -10z"/>
<path d="M1741 764 c0 -11 3 -14 6 -6 3 7 2 16 -1 19 -3 4 -6 -2 -5 -13z"/>
<path d="M3364 759 c-3 -6 -2 -15 3 -20 5 -5 9 -1 9 11 0 23 -2 24 -12 9z"/>
<path d="M3390 750 c0 -5 5 -10 11 -10 5 0 7 5 4 10 -3 6 -8 10 -11 10 -2 0
-4 -4 -4 -10z"/>
<path d="M3317 744 c-3 -4 1 -13 9 -21 8 -8 11 -19 8 -25 -4 -7 -2 -8 4 -4 9
5 9 13 1 29 -15 28 -15 28 -22 21z"/>
<path d="M3291 714 c0 -11 3 -14 6 -6 3 7 2 16 -1 19 -3 4 -6 -2 -5 -13z"/>
<path d="M1846 702 c-3 -5 1 -9 9 -9 8 0 12 4 9 9 -3 4 -7 8 -9 8 -2 0 -6 -4
-9 -8z"/>
<path d="M3250 659 c0 -5 5 -7 10 -4 6 3 10 8 10 11 0 2 -4 4 -10 4 -5 0 -10
-5 -10 -11z"/>
<path d="M3139 658 c-5 -18 -6 -38 -1 -34 7 8 12 36 6 36 -2 0 -4 -1 -5 -2z"/>
<path d="M1986 642 c-3 -5 1 -9 9 -9 8 0 15 4 15 9 0 4 -4 8 -9 8 -6 0 -12 -4
-15 -8z"/>
<path d="M3196 642 c-3 -5 1 -9 9 -9 8 0 12 4 9 9 -3 4 -7 8 -9 8 -2 0 -6 -4
-9 -8z"/>
<path d="M3076 607 c3 -10 9 -15 12 -12 3 3 0 11 -7 18 -10 9 -11 8 -5 -6z"/>
<path d="M3050 605 c0 -5 5 -17 10 -25 5 -8 10 -10 10 -5 0 6 -5 17 -10 25 -5
8 -10 11 -10 5z"/>
<path d="M3136 598 c3 -5 10 -6 15 -3 13 9 11 12 -6 12 -8 0 -12 -4 -9 -9z"/>
<path d="M3008 569 c-10 -10 -14 -19 -9 -19 5 0 14 7 21 15 7 8 17 12 23 8 6
-3 7 -1 3 5 -10 16 -18 14 -38 -9z"/>
<path d="M2137 569 c7 -7 15 -10 18 -7 3 3 -2 9 -12 12 -14 6 -15 5 -6 -5z"/>
<path d="M2914 531 c4 -6 3 -18 -3 -25 -8 -9 -7 -13 2 -13 16 0 20 34 5 43 -7
4 -8 2 -4 -5z"/>
<path d="M2236 513 c-6 -14 -5 -15 5 -6 7 7 10 15 7 18 -3 3 -9 -2 -12 -12z"/>
<path d="M2279 508 c-7 -23 -5 -39 4 -45 7 -3 9 -3 5 2 -4 4 0 14 10 22 16 12
16 13 -2 6 -13 -4 -17 -3 -12 5 4 7 5 12 2 12 -3 0 -6 -1 -7 -2z"/>
<path d="M2835 499 c-5 -8 -4 -10 3 -5 7 4 13 2 13 -3 3 -26 4 -30 11 -37 4
-3 5 4 3 16 -6 31 -21 45 -30 29z"/>
<path d="M2870 500 c0 -5 5 -10 11 -10 5 0 7 5 4 10 -3 6 -8 10 -11 10 -2 0
-4 -4 -4 -10z"/>
<path d="M2811 474 c0 -11 3 -14 6 -6 3 7 2 16 -1 19 -3 4 -6 -2 -5 -13z"/>
<path d="M2953 475 c0 -8 4 -12 9 -9 5 3 6 10 3 15 -9 13 -12 11 -12 -6z"/>
<path d="M2790 463 c0 -6 8 -17 18 -24 16 -13 16 -13 2 6 -8 11 -16 22 -17 24
-2 2 -3 0 -3 -6z"/>
<path d="M2366 451 c-19 -7 -19 -8 0 -13 13 -3 21 0 21 8 0 8 -1 14 -1 13 -1
0 -10 -4 -20 -8z"/>
<path d="M2395 421 c-3 -5 -2 -12 3 -15 5 -3 9 1 9 9 0 17 -3 19 -12 6z"/>
<path d="M2479 408 c-5 -18 -6 -38 -1 -34 7 8 12 36 6 36 -2 0 -4 -1 -5 -2z"/>
<path d="M2673 385 c0 -8 4 -12 9 -9 5 3 6 10 3 15 -9 13 -12 11 -12 -6z"/>
<path d="M2595 380 c-3 -5 -1 -10 4 -10 6 0 11 5 11 10 0 6 -2 10 -4 10 -3 0
-8 -4 -11 -10z"/>
</g>
</svg>
